<svg xmlns="http://www.w3.org/2000/svg" viewBox="0 0 512 512" role="img" aria-labelledby="title desc">
  <title id="title">Cleveland Guardians Winged G Logo</title>
  <desc id="desc">Baseball with winged G lettermark in team colors.</desc>
  <defs>
    <style>
      .bg { fill: none; }
      .baseball { fill: #ffffff; stroke: #0b1f3a; stroke-width: 14; }
      .seam { fill: none; stroke: #d50032; stroke-width: 12; stroke-linecap: round; }
      .wing-fill { fill: #ffffff; }
      .wing-outline { fill: none; stroke: #0b1f3a; stroke-width: 14; stroke-linecap: round; stroke-linejoin: round; }
      .g-fill { fill: #d50032; }
      .g-outline { fill: none; stroke: #0b1f3a; stroke-width: 18; stroke-linecap: round; stroke-linejoin: round; }
      .shadow { fill: #0b1f3a; opacity: 0.12; }
    </style>
  </defs>
  <rect class="bg" width="512" height="512" rx="40" ry="40"/>
  <g transform="translate(28,36)">
    <ellipse class="shadow" cx="286" cy="260" rx="160" ry="156"/>
    <circle class="baseball" cx="292" cy="240" r="152"/>
    <path class="seam" d="M184 194c34 22 64 34 108 34s74-12 108-34"/>
    <path class="seam" d="M184 286c34-22 64-34 108-34s74 12 108 34"/>
    <g transform="translate(68,-36)">
      <path class="wing-fill" d="M118 152l148-68 96 56-156 68z"/>
      <path class="wing-fill" d="M162 220l156-68 96 56-168 76z"/>
      <path class="wing-fill" d="M198 292l168-76 72 42-172 80z"/>
      <path class="wing-outline" d="M118 152l148-68 96 56-156 68z"/>
      <path class="wing-outline" d="M162 220l156-68 96 56-168 76z"/>
      <path class="wing-outline" d="M198 292l168-76 72 42-172 80z"/>
    </g>
    <path class="g-fill" d="M196 110l212 46-34 54-80-16-18 30 78 16-34 54-78-16-74 118-60-10 98-156-78-16z"/>
    <path class="g-outline" d="M196 110l212 46-34 54-80-16-18 30 78 16-34 54-78-16-74 118-60-10 98-156-78-16z"/>
  </g>
</svg>

